# AST/ASF file generated using VICON BodyLanguage
# -----------------------------------------------
:version 1.10
:name VICON
:units
  mass 1.0
  length 0.45
  angle deg
:documentation
   .ast/.asf automatically generated from VICON data using
   VICON BodyBuilder and BodyLanguage model FoxedUp or BRILLIANT.MOD
:root
   order TX TY TZ RX RY RZ
   axis XYZ
   position 0 0 0  
   orientation 0 0 0 
:bonedata
  begin
     id 1 
     name lhipjoint
     direction 0.558404 -0.748506 0.357664 
     length 2.4234 
     axis 0 0 0  XYZ
  end
  begin
     id 2 
     name lfemur
     direction 0.34202 -0.939693 0  
     length 7.14567  
     axis 0 0 20  XYZ
    dof rx ry rz
    limits (-160.0 20.0)
           (-70.0 70.0)
           (-60.0 70.0)
  end
  begin
     id 3 
     name ltibia
     direction 0.34202 -0.939693 0   
     length 8.13956   
     axis 0 0 20   XYZ
    dof rx
    limits (-10.0 170.0)
  end
  begin
     id 4 
     name lfoot
     direction 0.0791314 -0.217412 0.972867   
     length 2.00134   
     axis -90 7.62852e-016 20   XYZ
    dof rx rz
    limits (-45.0 90.0)
           (-70.0 20.0)
  end
  begin
     id 5 
     name ltoes
     direction 1.53547e-011 -4.21922e-011 1   
     length 1.00735   
     axis -90 7.62852e-016 20   XYZ
    dof rx
    limits (-90.0 20.0)
  end
  begin
     id 6 
     name rhipjoint
     direction -0.496392 -0.78327 0.374276   
     length 2.31584  
     axis 0 0 0  XYZ 
  end
  begin
     id 7 
     name rfemur
     direction -0.34202 -0.939693 0   
     length 7.47417   
     axis 0 0 -20   XYZ
    dof rx ry rz
    limits (-160.0 20.0)
           (-70.0 70.0)
           (-70.0 60.0)
  end
  begin
     id 8 
     name rtibia
     direction -0.34202 -0.939693 0   
     length 7.69071   
     axis 0 0 -20   XYZ
    dof rx
    limits (-10.0 170.0)
 end
 begin
     id 9 
     name rfoot
     direction -0.103069 -0.28318 0.953512   
     length 2.16135  
     axis -90 -7.62852e-016 -20   XYZ
    dof rx rz
    limits (-45.0 90.0)
           (-20.0 70.0)
  end
  begin
     id 10 
     name rtoes
     direction -1.53581e-011 -4.21904e-011 1   
     length 1.07867   
     axis -90 -7.62852e-016 -20   XYZ
    dof rx
    limits (-90.0 20.0)
  end
  begin
     id 11 
     name lowerback
     direction -0.0258961 0.994776 -0.0987407   
     length 2.19412   
     axis 0 0 0   XYZ
    dof rx ry rz
    limits (-20.0 45.0)
           (-30.0 30.0)
           (-30.0 30.0)
  end
  begin
     id 12 
     name upperback
     direction 0.0402454 0.999185 0.00320666   
     length 2.18445   
     axis 0 0 0   XYZ
    dof rx ry rz
    limits (-20.0 45.0)
           (-30.0 30.0)
           (-30.0 30.0)
  end
  begin
     id 13 
     name thorax
     direction 0.0519376 0.997415 0.0496558   
     length 2.21487   
     axis 0 0 0   XYZ
    dof rx ry rz
    limits (-20.0 45.0)
           (-30.0 30.0)
           (-30.0 30.0)
  end
  begin
     id 14 
     name lowerneck
     direction -0.0921276 0.983211 0.157506   
     length 1.61201   
     axis 0 0 0   XYZ
    dof rx ry rz
    limits (-20.0 45.0)
           (-30.0 30.0)
           (-30.0 30.0)
  end
  begin
     id 15 
     name upperneck
     direction 0.0820814 0.98162 -0.172292   
     length 1.65275   
     axis 0 0 0   XYZ
    dof rx ry rz
    limits (-20.0 45.0)
           (-30.0 30.0)
           (-30.0 30.0)
  end
  begin
     id 16
     name head
     direction 0.0336554 0.996413 -0.0776455  
     length 1.66415  
     axis 0 0 0   XYZ
    dof rx ry rz
    limits (-20.0 45.0)
           (-30.0 30.0)
           (-30.0 30.0)
  end
  begin
     id 17 
     name lclavicle
     direction 0.94696 0.284418 -0.149576  
     length 3.41447  
     axis 0 0 0   XYZ
    dof ry rz
    limits (-20.0 10.0)
           (0.0 20.0)
  end
  begin
     id 18 
     name lhumerus
     direction 1 -0.000130264 -9.81312e-005   
     length 5.19964   
     axis 180 -30 -90   XYZ
    dof rx ry rz
    limits (-60.0 90.0)
           (-90.0 90.0)
           (-90.0 90.0)
  end
  begin
     id 19
     name lradius
     direction 1 -4.48961e-011 1.43854e-026   
     length 3.32189   
     axis 180 -30 -90   XYZ
    dof rx
    limits (-10.0 170.0)
  end
  begin
     id 20
     name lwrist
     direction 1 -4.48958e-011 3.1502e-026   
     length 1.66095   
     axis -1.97692e-014 90 90   XYZ
    dof ry
    limits (-180.0 0.0)
 end
  begin
     id 21 
     name lhand
     direction 1 -4.48927e-011 6.3004e-026   
     length 0.645616   
     axis -4.02019e-014 90 90   XYZ
    dof rx rz
    limits (-90.0 90.0)
           (-45.0 45.0)
  end
  begin
     id 22 
     name lfingers
     direction 1 -4.4904e-011 1.26008e-025   
     length 0.520512   
     axis -8.04039e-014 90 90   XYZ
    dof rx
    limits (0.0 90.0)
  end
  begin
     id 23
     name lthumb
     direction 0.707107 -6.34947e-011 0.707107   
     length 0.747354   
     axis -90 45 2.85299e-015   XYZ
    dof rx rz
    limits (-45.0 45.0)
           (-45.0 45.0)
  end
  begin
     id 24 
     name rclavicle
     direction -0.909391 0.383475 -0.161107   
     length 3.25176  
     axis 0 0 0   XYZ 
    dof ry rz
    limits (-10.0 20.0)
           (-20.0 0.0)
  end
  begin
     id 25 
     name rhumerus
     direction -1 -4.48965e-011 -1.81384e-027  
     length 5.6595   
     axis 180 30 90   XYZ
    dof rx ry rz
    limits (-90.0 60.0)
           (-90.0 90.0)
           (-90.0 90.0)
  end
  begin
     id 26 
     name rradius
     direction -1 -4.48996e-011 -8.09397e-027   
     length 3.37604   
     axis 180 30 90   XYZ
    dof rx
    limits (-10.0 170.0)
  end
  begin
     id 27 
     name rwrist
     direction -1 -4.48927e-011 -1.56669e-026   
     length 1.68802   
     axis 1.21142e-014 -90 -90   XYZ
    dof ry
    limits (-180.0 0.0)
  end
  begin
     id 28
     name rhand
     direction -1 -4.48912e-011 -3.13339e-026   
     length 0.824702   
     axis 1.99937e-014 -90 -90   XYZ
    dof rx rz
    limits (-90.0 90.0)
           (-45.0 45.0)
  end
  begin
     id 29
     name rfingers
     direction -1 -4.49011e-011 -6.26677e-026   
     length 0.664896   
     axis 3.99874e-014 -90 -90   XYZ
    dof rx
    limits (0.0 90.0)
  end
  begin
     id 30
     name rthumb
     direction -0.707107 -6.34931e-011 0.707107   
     length 0.954662   
     axis -90 -45 -2.85299e-015   XYZ
    dof rx rz
    limits (-45.0 45.0)
           (-45.0 45.0)
  end
:hierarchy
  begin
    root lhipjoint rhipjoint lowerback
    lhipjoint lfemur
    lfemur ltibia
    ltibia lfoot
    lfoot ltoes
    rhipjoint rfemur
    rfemur rtibia
    rtibia rfoot
    rfoot rtoes
    lowerback upperback
    upperback thorax
    thorax lowerneck lclavicle rclavicle
    lowerneck upperneck
    upperneck head
    lclavicle lhumerus
    lhumerus lradius
    lradius lwrist
    lwrist lhand lthumb
    lhand lfingers
    rclavicle rhumerus
    rhumerus rradius
    rradius rwrist
    rwrist rhand rthumb
    rhand rfingers
  end

#!OML:ASF F:\VICON\USERDATA\INSTALL\rory3\rory3.ASF
:FULLY-SPECIFIED
:DEGREES
394
root 2.58374 16.1152 -3.14924 5.62621 -22.752 -25.1939
lowerback 8.54066 0.667072 6.28153
upperback -0.127846 2.0332 13.194
thorax -5.27747 0.981252 10.496
lowerneck -3.53785 -8.94566 -17.9282
upperneck 32.3919 -14.6684 11.7874
head 13.8778 -7.60436 5.73055
rclavicle -2.59911e-014 -6.59965e-014
rhumerus -31.1844 -4.65531 -40.6289
rradius 73.6939
rwrist -20.0525
rhand -23.8306 23.7595
rfingers 7.12502
rthumb 2.64092 -6.20385
lclavicle -2.59911e-014 -6.59965e-014
lhumerus -27.4499 14.1292 -7.23849
lradius 29.0629
lwrist -8.49167
lhand -14.0008 38.691
lfingers 7.12502
lthumb 12.1283 68.3195
rfemur 23.1539 13.8895 7.2106
rtibia 70.6637
rfoot 23.6922 -14.0173
rtoes 36.1283
lfemur -47.6609 16.138 -6.53251
ltibia 44.1071
lfoot 8.4296 -0.193503
ltoes 31.6955
395
root 2.56539 15.9086 -2.85187 4.01823 -21.8009 -23.3413
lowerback 9.8584 0.184626 4.53156
upperback -0.520208 1.42927 12.8431
thorax -6.40401 0.755085 11.2667
lowerneck -3.84168 -8.85312 -17.7238
upperneck 33.4202 -14.4797 11.2138
head 14.3012 -7.56405 5.51
rclavicle -1.13307e-014 -7.79236e-014
rhumerus -32.7138 -5.94445 -40.6133
rradius 71.9921
rwrist -19.4176
rhand -23.6594 23.2578
rfingers 7.12502
rthumb 2.80633 -6.70346
lclavicle -1.13307e-014 -7.79236e-014
lhumerus -27.7341 15.05 -6.80821
lradius 29.6299
lwrist -8.00604
lhand -15.6714 40.5269
lfingers 7.12502
lthumb 10.5171 70.2438
rfemur 21.3285 13.9606 4.58767
rtibia 74.0858
rfoot 22.8437 -14.673
rtoes 36.1718
lfemur -48.8314 15.3472 -8.79076
ltibia 49.1109
lfoot 5.44604 -0.870501
ltoes 29.2844
396
root 2.53726 15.6859 -2.58666 2.09797 -20.7735 -20.7136
lowerback 10.7472 -0.0450021 2.36418
upperback -0.357517 0.909733 12.0975
thorax -6.66247 0.570151 11.795
lowerneck -4.35623 -9.02673 -17.2344
upperneck 33.91 -14.7282 10.9894
head 14.622 -7.61811 5.28191
rclavicle -5.96851e-014 -2.38542e-014
rhumerus -33.9938 -8.81131 -40.6843
rradius 69.9125
rwrist -18.3226
rhand -23.2689 23.1242
rfingers 7.12502
rthumb 3.18344 -6.83178
lclavicle -5.96851e-014 -2.38542e-014
lhumerus -27.4907 17.8592 -6.16657
lradius 30.0323
lwrist -8.30155
lhand -16.7083 42.1574
lfingers 7.12502
lthumb 9.51676 71.9225
rfemur 19.1297 13.9636 0.832542
rtibia 77.6482
rfoot 20.5633 -15.7112
rtoes 36.2664
lfemur -49.7058 14.026 -11.7934
ltibia 53.9064
lfoot 2.08107 -1.2723
ltoes 21.2542
397
root 2.51403 15.518 -2.31397 0.236875 -20.5022 -18.1394
lowerback 11.5269 0.0524111 0.0897127
upperback 0.0380773 0.734107 11.3257
thorax -6.65496 0.545456 12.305
lowerneck -4.53565 -9.18806 -16.8194
upperneck 34.0219 -15.0135 10.944
head 14.7225 -7.68575 5.13701
rclavicle -4.34593e-014 -2.62396e-014
rhumerus -35.311 -11.8524 -40.7766
rradius 67.6833
rwrist -17.1126
rhand -23.2012 22.9839
rfingers 7.12502
rthumb 3.24876 -6.97109
lclavicle -4.34593e-014 -2.62396e-014
lhumerus -27.2616 21.1291 -5.43043
lradius 30.2776
lwrist -8.95596
lhand -16.8927 42.6353
lfingers 7.12502
lthumb 9.33883 72.4084
rfemur 15.9427 14.5048 -2.97342
rtibia 81.0628
rfoot 20.6454 -15.8998
rtoes 43.0751
lfemur -50.4058 13.2934 -14.4747
ltibia 58.0633
lfoot -0.272832 -1.19899
ltoes 19.89
398
root 2.50705 15.3586 -2.07064 -1.73906 -19.8823 -16.3257
lowerback 13.0652 -0.0980263 -1.41247
upperback 0.484619 0.333435 10.7851
thorax -6.95671 0.388371 12.7081
lowerneck -4.42335 -9.14607 -16.7621
upperneck 33.8583 -15.0077 11.0978
head 14.6272 -7.66365 5.19514
rclavicle -6.48038e-014 -7.15625e-015
rhumerus -36.4989 -14.225 -41.0241
rradius 65.5886
rwrist -16.4652
rhand -23.6587 22.6702
rfingers 7.12502
rthumb 2.80696 -7.29103
lclavicle -6.48038e-014 -7.15625e-015
lhumerus -27.7361 24.2935 -4.79596
lradius 30.5646
lwrist -9.5279
lhand -16.4218 41.0223
lfingers 7.12502
lthumb 9.79325 70.7746
rfemur 12.8227 14.7651 -5.70825
rtibia 84.1055
rfoot 18.8993 -16.9
rtoes 42.5392
lfemur -50.1557 13.0276 -16.5467
ltibia 61.2303
lfoot -2.36936 -1.55579
ltoes 19.8119
399
root 2.53016 15.2107 -1.79993 -3.5855 -19.6168 -14.9247
lowerback 14.2306 -0.306853 -2.08481
upperback 1.19045 -0.098923 10.2632
thorax -6.73759 0.149251 12.6028
lowerneck -4.53985 -9.04211 -16.6564
upperneck 33.5048 -14.8395 11.2413
head 14.4545 -7.55331 5.25267
rclavicle 2.91716e-014 1.11319e-014
rhumerus -37.4923 -16.0713 -41.5437
rradius 63.4725
rwrist -16.4606
rhand -24.6471 22.5951
rfingers 7.12502
rthumb 1.85238 -7.37664
lclavicle 2.91716e-014 1.11319e-014
lhumerus -28.744 27.0382 -4.09667
lradius 31.0039
lwrist -9.6346
lhand -15.7242 39.1215
lfingers 7.12502
lthumb 10.4662 68.841
rfemur 9.59448 15.3348 -7.95808
rtibia 86.4082
rfoot 17.7932 -18.0614
rtoes 45.5825
lfemur -49.2145 13.2168 -18.298
ltibia 63.6823
lfoot -4.45136 -1.58239
ltoes 20.1188
400
root 2.58232 15.0894 -1.51052 -5.23623 -19.7907 -13.6154
lowerback 14.9999 -0.324829 -2.1695
upperback 1.76201 -0.190821 9.71318
thorax -6.52064 0.0659657 12.0246
lowerneck -3.81383 -8.9428 -16.8799
upperneck 32.8212 -14.7404 11.4664
head 14.0036 -7.5377 5.41247
rclavicle -3.86048e-014 -5.56597e-014
rhumerus -39.0476 -17.641 -41.6039
rradius 61.0302
rwrist -16.4792
rhand -25.6573 22.7896
rfingers 7.12502
rthumb 0.876774 -7.18839
lclavicle -3.86048e-014 -5.56597e-014
lhumerus -29.2664 28.7458 -2.36411
lradius 31.5334
lwrist -8.72796
lhand -15.6642 38.7899
lfingers 7.12502
lthumb 10.5241 68.5065
rfemur 5.64013 15.7683 -10.136
rtibia 87.9474
rfoot 17.6336 -18.7779
rtoes 46.4634
lfemur -48.0656 13.4348 -19.8986
ltibia 65.7807
lfoot -6.3801 -1.06726
ltoes 20.4862
401
root 2.64497 14.9831 -1.23593 -6.65453 -20.2762 -12.2948
lowerback 15.7347 -0.234635 -2.30471
upperback 2.3966 -0.153859 9.16055
thorax -6.2441 0.0451495 11.4507
lowerneck -4.09388 -8.99135 -16.5858
upperneck 32.597 -14.635 11.0818
head 13.8739 -7.47555 5.19865
rclavicle -1.14301e-014 -1.90833e-014
rhumerus -40.1414 -19.2427 -42.0046
rradius 58.3526
rwrist -17.0482
rhand -26.9969 22.8545
rfingers 7.12502
rthumb -0.417134 -7.12484
lclavicle -1.14301e-014 -1.90833e-014
lhumerus -29.7357 31.0785 -0.569867
lradius 31.8248
lwrist -7.84225
lhand -15.8925 38.6519
lfingers 7.12502
lthumb 10.3039 68.3795
rfemur 1.141 15.9434 -12.365
rtibia 88.8129
rfoot 15.1619 -20.4194
rtoes 44.9801
lfemur -46.9741 13.4879 -21.369
ltibia 67.6136
lfoot -8.13511 -0.14451
ltoes 20.3997
